<svg width="49" height="49" viewBox="0 0 49 49" fill="none" xmlns="http://www.w3.org/2000/svg">
<path d="M4.70801 25.9866H38.7049" stroke="#EFEFEF" stroke-width="1.49986" stroke-miterlimit="10" stroke-linecap="round" stroke-linejoin="round"/>
<path d="M38.7049 21.327V35.6257C38.6449 41.3251 37.085 42.765 31.1455 42.765H12.2674C6.22793 42.765 4.70801 41.2651 4.70801 35.3057V21.327C4.70801 15.9275 5.96789 14.1876 10.7075 13.9077C11.1874 13.8877 11.7074 13.8677 12.2674 13.8677H31.1455C37.1849 13.8677 38.7049 15.3675 38.7049 21.327Z" stroke="#EFEFEF" stroke-width="1.49986" stroke-linecap="round" stroke-linejoin="round"/>
<path d="M44.7029 14.2276V28.2063C44.7029 33.6058 43.443 35.3457 38.7035 35.6256V21.327C38.7035 15.3675 37.1835 13.8677 31.1441 13.8677H12.266C11.706 13.8677 11.186 13.8877 10.7061 13.9077C10.766 8.20818 12.326 6.76831 18.2654 6.76831H37.1436C43.183 6.76831 44.7029 8.26817 44.7029 14.2276Z" stroke="#EFEFEF" stroke-width="1.49986" stroke-linecap="round" stroke-linejoin="round"/>
<path d="M11.2061 36.3857H14.6457" stroke="#EFEFEF" stroke-width="1.49986" stroke-miterlimit="10" stroke-linecap="round" stroke-linejoin="round"/>
<path d="M18.9238 36.3857H25.8032" stroke="#EFEFEF" stroke-width="1.49986" stroke-miterlimit="10" stroke-linecap="round" stroke-linejoin="round"/>
</svg>
